<mxfile host="Electron" modified="2024-07-06T19:15:45.696Z" agent="Mozilla/5.0 (Windows NT 10.0; Win64; x64) AppleWebKit/537.36 (KHTML, like Gecko) draw.io/24.0.4 Chrome/120.0.6099.109 Electron/28.1.0 Safari/537.36" etag="2QhcMo3ejXP6xSASZZH6" version="24.0.4" type="device">
  <diagram name="PÃ¡gina-1" id="Dwy80_beX6YFopBO-R_K">
    <mxGraphModel dx="1434" dy="844" grid="1" gridSize="10" guides="1" tooltips="1" connect="1" arrows="1" fold="1" page="1" pageScale="1" pageWidth="827" pageHeight="1169" math="0" shadow="0">
      <root>
        <mxCell id="0" />
        <mxCell id="1" parent="0" />
        <mxCell id="QkFPtH7XvawhsNr5gOJV-2" value="Core" style="shape=hexagon;perimeter=hexagonPerimeter2;whiteSpace=wrap;html=1;fixedSize=1;fillColor=#e3c800;fontColor=#000000;strokeColor=#B09500;gradientColor=none;rounded=1;shadow=0;textShadow=0;fontStyle=1" parent="1" vertex="1">
          <mxGeometry x="310" y="350" width="220" height="210" as="geometry" />
        </mxCell>
        <mxCell id="QkFPtH7XvawhsNr5gOJV-9" value="Adapter" style="rounded=1;whiteSpace=wrap;html=1;fillColor=#d80073;rotation=-75;fontColor=#ffffff;strokeColor=#A50040;" parent="1" vertex="1">
          <mxGeometry x="180" y="360" width="80" height="30" as="geometry" />
        </mxCell>
        <mxCell id="QkFPtH7XvawhsNr5gOJV-10" value="Service" style="rounded=1;whiteSpace=wrap;html=1;fillColor=#6d8764;rotation=-75;fontColor=#ffffff;strokeColor=#3A5431;" parent="1" vertex="1">
          <mxGeometry x="220" y="370" width="80" height="30" as="geometry" />
        </mxCell>
        <mxCell id="QkFPtH7XvawhsNr5gOJV-11" value="Api Aluno" style="rounded=1;whiteSpace=wrap;html=1;fillColor=#76608a;fontColor=#ffffff;strokeColor=#432D57;" parent="1" vertex="1">
          <mxGeometry x="60" y="350" width="90" height="40" as="geometry" />
        </mxCell>
        <mxCell id="QkFPtH7XvawhsNr5gOJV-12" value="" style="endArrow=classic;startArrow=classic;html=1;rounded=0;exitX=1;exitY=0.5;exitDx=0;exitDy=0;entryX=0.5;entryY=0;entryDx=0;entryDy=0;" parent="1" source="QkFPtH7XvawhsNr5gOJV-11" target="QkFPtH7XvawhsNr5gOJV-9" edge="1">
          <mxGeometry width="50" height="50" relative="1" as="geometry">
            <mxPoint x="300" y="400" as="sourcePoint" />
            <mxPoint x="350" y="350" as="targetPoint" />
          </mxGeometry>
        </mxCell>
        <mxCell id="QkFPtH7XvawhsNr5gOJV-16" value="Service" style="rounded=1;whiteSpace=wrap;html=1;fillColor=#6d8764;rotation=-105;fontColor=#ffffff;strokeColor=#3A5431;" parent="1" vertex="1">
          <mxGeometry x="220" y="510" width="80" height="30" as="geometry" />
        </mxCell>
        <mxCell id="QkFPtH7XvawhsNr5gOJV-17" value="Adapter" style="rounded=1;whiteSpace=wrap;html=1;fillColor=#d80073;rotation=-105;fontColor=#ffffff;strokeColor=#A50040;" parent="1" vertex="1">
          <mxGeometry x="180" y="520" width="80" height="30" as="geometry" />
        </mxCell>
        <mxCell id="QkFPtH7XvawhsNr5gOJV-19" value="Api Curso" style="rounded=1;whiteSpace=wrap;html=1;fillColor=#76608a;fontColor=#ffffff;strokeColor=#432D57;" parent="1" vertex="1">
          <mxGeometry x="60" y="520" width="90" height="40" as="geometry" />
        </mxCell>
        <mxCell id="QkFPtH7XvawhsNr5gOJV-20" value="" style="endArrow=classic;startArrow=classic;html=1;rounded=0;exitX=1;exitY=0.5;exitDx=0;exitDy=0;entryX=0.5;entryY=0;entryDx=0;entryDy=0;" parent="1" source="QkFPtH7XvawhsNr5gOJV-19" target="QkFPtH7XvawhsNr5gOJV-17" edge="1">
          <mxGeometry width="50" height="50" relative="1" as="geometry">
            <mxPoint x="270" y="400" as="sourcePoint" />
            <mxPoint x="320" y="350" as="targetPoint" />
          </mxGeometry>
        </mxCell>
        <mxCell id="QkFPtH7XvawhsNr5gOJV-21" value="Port" style="rounded=1;whiteSpace=wrap;html=1;fillColor=#e51400;rotation=-75;fontColor=#ffffff;strokeColor=#B20000;fontStyle=0" parent="1" vertex="1">
          <mxGeometry x="260" y="380" width="80" height="30" as="geometry" />
        </mxCell>
        <mxCell id="QkFPtH7XvawhsNr5gOJV-22" value="Port" style="rounded=1;whiteSpace=wrap;html=1;fillColor=#e51400;rotation=-105;fontColor=#ffffff;strokeColor=#B20000;" parent="1" vertex="1">
          <mxGeometry x="260" y="500" width="80" height="30" as="geometry" />
        </mxCell>
        <mxCell id="QkFPtH7XvawhsNr5gOJV-23" value="Port" style="rounded=1;whiteSpace=wrap;html=1;fillColor=#e51400;rotation=75;fontColor=#ffffff;strokeColor=#B20000;" parent="1" vertex="1">
          <mxGeometry x="500" y="380" width="80" height="30" as="geometry" />
        </mxCell>
        <mxCell id="QkFPtH7XvawhsNr5gOJV-24" value="Service" style="rounded=1;whiteSpace=wrap;html=1;fillColor=#6d8764;rotation=75;fontColor=#ffffff;strokeColor=#3A5431;" parent="1" vertex="1">
          <mxGeometry x="540" y="370" width="80" height="30" as="geometry" />
        </mxCell>
        <mxCell id="QkFPtH7XvawhsNr5gOJV-25" value="Adapter" style="rounded=1;whiteSpace=wrap;html=1;fillColor=#d80073;rotation=75;fontColor=#ffffff;strokeColor=#A50040;" parent="1" vertex="1">
          <mxGeometry x="580" y="360" width="80" height="30" as="geometry" />
        </mxCell>
        <mxCell id="QkFPtH7XvawhsNr5gOJV-26" value="MySql" style="shape=cylinder3;whiteSpace=wrap;html=1;boundedLbl=1;backgroundOutline=1;size=15;" parent="1" vertex="1">
          <mxGeometry x="695" y="320" width="50" height="70" as="geometry" />
        </mxCell>
        <mxCell id="QkFPtH7XvawhsNr5gOJV-29" value="Redis Cache" style="image;sketch=0;aspect=fixed;html=1;points=[];align=center;fontSize=12;image=img/lib/mscae/Cache_Redis_Product.svg;" parent="1" vertex="1">
          <mxGeometry x="695" y="540" width="50" height="42" as="geometry" />
        </mxCell>
        <mxCell id="QkFPtH7XvawhsNr5gOJV-30" value="" style="endArrow=none;dashed=1;html=1;dashPattern=1 3;strokeWidth=2;rounded=0;entryX=0.5;entryY=1;entryDx=0;entryDy=0;entryPerimeter=0;" parent="1" source="QkFPtH7XvawhsNr5gOJV-29" target="QkFPtH7XvawhsNr5gOJV-26" edge="1">
          <mxGeometry width="50" height="50" relative="1" as="geometry">
            <mxPoint x="350" y="480" as="sourcePoint" />
            <mxPoint x="400" y="430" as="targetPoint" />
          </mxGeometry>
        </mxCell>
        <mxCell id="QkFPtH7XvawhsNr5gOJV-33" value="Condutores" style="text;html=1;align=center;verticalAlign=middle;whiteSpace=wrap;rounded=0;" parent="1" vertex="1">
          <mxGeometry x="67.5" y="260" width="75" height="40" as="geometry" />
        </mxCell>
        <mxCell id="QkFPtH7XvawhsNr5gOJV-34" value="Conduzidos" style="text;html=1;align=center;verticalAlign=middle;whiteSpace=wrap;rounded=0;" parent="1" vertex="1">
          <mxGeometry x="685" y="260" width="60" height="30" as="geometry" />
        </mxCell>
        <mxCell id="QkFPtH7XvawhsNr5gOJV-40" value="Port" style="rounded=1;whiteSpace=wrap;html=1;fillColor=#e51400;rotation=105;fontColor=#ffffff;strokeColor=#B20000;" parent="1" vertex="1">
          <mxGeometry x="500" y="500" width="80" height="30" as="geometry" />
        </mxCell>
        <mxCell id="QkFPtH7XvawhsNr5gOJV-41" value="Service" style="rounded=1;whiteSpace=wrap;html=1;fillColor=#6d8764;rotation=105;fontColor=#ffffff;strokeColor=#3A5431;" parent="1" vertex="1">
          <mxGeometry x="540" y="510" width="80" height="30" as="geometry" />
        </mxCell>
        <mxCell id="QkFPtH7XvawhsNr5gOJV-43" value="Adapter" style="rounded=1;whiteSpace=wrap;html=1;fillColor=#d80073;rotation=105;fontColor=#ffffff;strokeColor=#A50040;" parent="1" vertex="1">
          <mxGeometry x="580" y="520" width="80" height="30" as="geometry" />
        </mxCell>
        <mxCell id="QkFPtH7XvawhsNr5gOJV-44" value="" style="endArrow=classic;startArrow=classic;html=1;rounded=0;exitX=0.5;exitY=0;exitDx=0;exitDy=0;entryX=0.02;entryY=0.524;entryDx=0;entryDy=0;entryPerimeter=0;" parent="1" source="QkFPtH7XvawhsNr5gOJV-43" edge="1" target="QkFPtH7XvawhsNr5gOJV-29">
          <mxGeometry width="50" height="50" relative="1" as="geometry">
            <mxPoint x="630" y="561" as="sourcePoint" />
            <mxPoint x="690" y="570" as="targetPoint" />
          </mxGeometry>
        </mxCell>
        <mxCell id="QkFPtH7XvawhsNr5gOJV-45" value="" style="endArrow=classic;html=1;rounded=0;entryX=0;entryY=0.5;entryDx=0;entryDy=0;entryPerimeter=0;exitX=0.5;exitY=0;exitDx=0;exitDy=0;" parent="1" source="QkFPtH7XvawhsNr5gOJV-25" target="QkFPtH7XvawhsNr5gOJV-26" edge="1">
          <mxGeometry width="50" height="50" relative="1" as="geometry">
            <mxPoint x="410" y="560" as="sourcePoint" />
            <mxPoint x="460" y="510" as="targetPoint" />
          </mxGeometry>
        </mxCell>
      </root>
    </mxGraphModel>
  </diagram>
</mxfile>
